<svg xmlns="http://www.w3.org/2000/svg" width="256" height="256" viewBox="0 0 256 256" role="img" aria-labelledby="title desc">
  <title id="title">L.C. Ross copper scroll mark</title>
  <desc id="desc">A dedicated logan.engineering copper scroll icon with a dark field, curled copper sheet, etched L.C. Ross inscription, and four room notches.</desc>
  <defs>
    <linearGradient id="field" x1="30" y1="20" x2="226" y2="236" gradientUnits="userSpaceOnUse">
      <stop offset="0" stop-color="#140b06"/>
      <stop offset=".48" stop-color="#070604"/>
      <stop offset="1" stop-color="#1a0d07"/>
    </linearGradient>
    <linearGradient id="copper" x1="52" y1="54" x2="204" y2="206" gradientUnits="userSpaceOnUse">
      <stop offset="0" stop-color="#f4c58f"/>
      <stop offset=".18" stop-color="#bd6e34"/>
      <stop offset=".44" stop-color="#7f341d"/>
      <stop offset=".66" stop-color="#d38a4d"/>
      <stop offset="1" stop-color="#5d2417"/>
    </linearGradient>
    <linearGradient id="edge" x1="63" y1="55" x2="193" y2="194" gradientUnits="userSpaceOnUse">
      <stop offset="0" stop-color="#fff0bf"/>
      <stop offset=".32" stop-color="#d99654"/>
      <stop offset=".72" stop-color="#5b2115"/>
      <stop offset="1" stop-color="#180906"/>
    </linearGradient>
    <radialGradient id="ember" cx="38%" cy="30%" r="58%">
      <stop offset="0" stop-color="#ffd493" stop-opacity=".38"/>
      <stop offset=".54" stop-color="#d47a3a" stop-opacity=".14"/>
      <stop offset="1" stop-color="#000" stop-opacity="0"/>
    </radialGradient>
    <filter id="shadow" x="-30%" y="-30%" width="160%" height="170%">
      <feDropShadow dx="0" dy="15" stdDeviation="14" flood-color="#000" flood-opacity=".62"/>
    </filter>
  </defs>
  <rect width="256" height="256" rx="58" fill="url(#field)"/>
  <path d="M32 203 C66 224 190 224 224 203" fill="none" stroke="#2a130c" stroke-width="9" stroke-linecap="round" opacity=".72"/>
  <g filter="url(#shadow)">
    <path d="M70 50 C92 39 166 39 187 50 C180 77 180 177 187 206 C164 218 91 218 70 206 C78 178 78 78 70 50Z" fill="url(#copper)" stroke="#f0c078" stroke-width="2.6"/>
    <path d="M69 50 C53 58 52 82 69 93 C78 82 78 61 69 50Z" fill="#7b2e1a" stroke="#e6a05e" stroke-width="2.2"/>
    <path d="M187 50 C205 59 204 83 187 94 C178 81 178 61 187 50Z" fill="#4f1d13" stroke="#d98749" stroke-width="2.2"/>
    <path d="M70 206 C52 196 53 172 70 162 C79 176 79 195 70 206Z" fill="#4f1d13" stroke="#d98749" stroke-width="2.2"/>
    <path d="M187 206 C204 196 204 173 187 162 C178 176 178 195 187 206Z" fill="#7b2e1a" stroke="#e6a05e" stroke-width="2.2"/>
    <path d="M86 62 C105 55 151 55 170 62" fill="none" stroke="#ffd79a" stroke-width="2" stroke-linecap="round" opacity=".72"/>
    <path d="M86 195 C106 202 151 202 171 195" fill="none" stroke="#35140d" stroke-width="2.2" stroke-linecap="round" opacity=".45"/>
    <path d="M91 75 C105 71 151 71 165 75" fill="none" stroke="#492014" stroke-width="1.2" stroke-linecap="round" opacity=".38"/>
    <path d="M91 181 C106 185 150 185 165 181" fill="none" stroke="#492014" stroke-width="1.2" stroke-linecap="round" opacity=".32"/>
    <path d="M93 119 C111 112 144 112 163 119" fill="none" stroke="#1a0b07" stroke-width="14" stroke-linecap="round" opacity=".42"/>
    <text x="128" y="136" text-anchor="middle" font-family="Georgia, 'Times New Roman', serif" font-size="28" font-weight="700" letter-spacing=".8" fill="#ffe2aa" stroke="#1a0b07" stroke-width="1.8" paint-order="stroke" opacity=".96">L.C. Ross</text>
    <path d="M96 149 C115 155 141 155 160 149" fill="none" stroke="#1a0b07" stroke-width="4.4" stroke-linecap="round" opacity=".45"/>
    <path d="M98 148 C116 153 140 153 158 148" fill="none" stroke="#ffe2aa" stroke-width="1.6" stroke-linecap="round" opacity=".72"/>
    <g fill="#170a06" opacity=".66">
      <circle cx="84" cy="128" r="3.6"/>
      <circle cx="128" cy="58" r="3.6"/>
      <circle cx="172" cy="128" r="3.6"/>
      <circle cx="128" cy="198" r="3.6"/>
    </g>
    <g stroke="#ffe2aa" stroke-width="2.4" stroke-linecap="round" opacity=".88">
      <path d="M82 128 h12"/>
      <path d="M128 56 v12"/>
      <path d="M162 128 h12"/>
      <path d="M128 188 v12"/>
    </g>
    <path d="M79 55 C99 47 157 47 177 55 C169 75 169 181 177 202 C156 211 99 211 79 202 C86 179 86 77 79 55Z" fill="url(#ember)" opacity=".9"/>
  </g>
  <path d="M50 35 L206 221" stroke="#fff2c6" stroke-width="1.4" stroke-linecap="round" opacity=".16"/>
  <path d="M205 35 L51 221" stroke="#d88444" stroke-width="1.1" stroke-linecap="round" opacity=".12"/>
</svg>
